<svg width="32" height="32" viewBox="0 0 32 32" fill="none" xmlns="http://www.w3.org/2000/svg">
<path d="M16.3257 5.3335C17.0377 5.3375 18.819 5.35483 20.7123 5.43083L21.3843 5.46016C23.2897 5.5495 25.1937 5.70416 26.139 5.96683C27.399 6.3215 28.3883 7.3535 28.723 8.66283C29.2563 10.7428 29.323 14.7988 29.331 15.7815L29.3323 15.9842V16.2162C29.323 17.1988 29.2563 21.2562 28.723 23.3348C28.3843 24.6482 27.3937 25.6815 26.139 26.0308C25.1937 26.2935 23.2897 26.4482 21.3843 26.5375L20.7123 26.5682C18.819 26.6428 17.0377 26.6615 16.3257 26.6642L16.0123 26.6655H15.6723C14.1657 26.6562 7.86433 26.5882 5.85899 26.0308C4.60033 25.6762 3.60966 24.6442 3.27499 23.3348C2.74166 21.2548 2.67499 17.1988 2.66699 16.2162V15.7815C2.67499 14.7988 2.74166 10.7415 3.27499 8.66283C3.61366 7.3495 4.60433 6.31616 5.86033 5.96816C7.86433 5.4095 14.167 5.3415 15.6737 5.3335H16.3257ZM13.3323 11.3335V20.6668L21.3323 16.0002L13.3323 11.3335Z" fill="#161616"/>
</svg>